<svg xmlns="http://www.w3.org/2000/svg" version="1.1" xmlns:xlink="http://www.w3.org/1999/xlink" xmlns:svgjs="http://svgjs.dev/svgjs" width="1000" height="1000" viewBox="0 0 1000 1000"><rect width="1000" height="1000" fill="#ffffff"></rect><g transform="matrix(0.7,0,0,0.7,149.57575764066837,431.95580520741294)"><svg viewBox="0 0 396 77" data-background-color="#ffffff" preserveAspectRatio="xMidYMid meet" height="194" width="1000" xmlns="http://www.w3.org/2000/svg" xmlns:xlink="http://www.w3.org/1999/xlink"><g id="tight-bounds" transform="matrix(1,0,0,1,0.24000003672097137,0.08175993394115721)"><svg viewBox="0 0 395.52 76.83648013211766" height="76.83648013211766" width="395.52"><g><svg viewBox="0 0 511.96823208 99.4585277419355" height="76.83648013211766" width="395.52"><g transform="matrix(1,0,0,1,0,13.745715483870974)"><svg viewBox="0 0 395.52 71.96709677419355" height="71.96709677419355" width="395.52"><g id="textblocktransform"><svg viewBox="0 0 395.52 71.96709677419355" height="71.96709677419355" width="395.52" id="textblock"><g><svg viewBox="0 0 395.52 71.96709677419355" height="71.96709677419355" width="395.52"><g transform="matrix(1,0,0,1,0,0)"><svg width="395.52" viewBox="2.200000047683716 -35.5 198.38999938964844 36.099998474121094" height="71.96709677419355" data-palette-color="#a437db"><path d="M23.3 0L23.3-5.5 22.5-5.5Q22.15-2.8 20.13-1.1 18.1 0.6 14.65 0.6L14.65 0.6Q12.15 0.6 9.9-0.35 7.65-1.3 5.95-3.4 4.25-5.5 3.23-8.93 2.2-12.35 2.2-17.3L2.2-17.3Q2.2-22.25 3.2-25.7 4.2-29.15 6-31.33 7.8-33.5 10.35-34.5 12.9-35.5 16.05-35.5L16.05-35.5Q20.75-35.5 23.85-33.48 26.95-31.45 28.7-27.45L28.7-27.45 22.85-24.1Q22.15-26.45 20.5-27.83 18.85-29.2 16-29.2L16-29.2Q13.15-29.2 11.48-27.4 9.8-25.6 9.8-22L9.8-22 9.8-12.9Q9.8-9.3 11.5-7.53 13.2-5.75 16.2-5.75L16.2-5.75Q18.9-5.75 20.68-7.13 22.45-8.5 22.45-11.2L22.45-11.2 22.45-13.25 16.7-13.25 16.7-19.25 29.3-19.25 29.3 0 23.3 0ZM49.9 0L34.55 0 34.55-5.65 38.65-5.65 38.65-29.25 34.55-29.25 34.55-34.9 49.9-34.9 49.9-29.25 45.8-29.25 45.8-5.65 49.9-5.65 49.9 0ZM75.45 0L75.45-5.5 74.65-5.5Q74.3-2.8 72.27-1.1 70.25 0.6 66.8 0.6L66.8 0.6Q64.3 0.6 62.05-0.35 59.8-1.3 58.1-3.4 56.4-5.5 55.37-8.93 54.35-12.35 54.35-17.3L54.35-17.3Q54.35-22.25 55.35-25.7 56.35-29.15 58.15-31.33 59.95-33.5 62.5-34.5 65.05-35.5 68.2-35.5L68.2-35.5Q72.9-35.5 76-33.48 79.1-31.45 80.85-27.45L80.85-27.45 75-24.1Q74.3-26.45 72.65-27.83 71-29.2 68.15-29.2L68.15-29.2Q65.3-29.2 63.62-27.4 61.95-25.6 61.95-22L61.95-22 61.95-12.9Q61.95-9.3 63.65-7.53 65.35-5.75 68.35-5.75L68.35-5.75Q71.05-5.75 72.82-7.13 74.6-8.5 74.6-11.2L74.6-11.2 74.6-13.25 68.85-13.25 68.85-19.25 81.45-19.25 81.45 0 75.45 0ZM107.74 0L107.74-5.5 106.94-5.5Q106.59-2.8 104.57-1.1 102.54 0.6 99.09 0.6L99.09 0.6Q96.59 0.6 94.34-0.35 92.09-1.3 90.39-3.4 88.69-5.5 87.67-8.93 86.64-12.35 86.64-17.3L86.64-17.3Q86.64-22.25 87.64-25.7 88.64-29.15 90.44-31.33 92.24-33.5 94.79-34.5 97.34-35.5 100.49-35.5L100.49-35.5Q105.19-35.5 108.29-33.48 111.39-31.45 113.14-27.45L113.14-27.45 107.29-24.1Q106.59-26.45 104.94-27.83 103.29-29.2 100.44-29.2L100.44-29.2Q97.59-29.2 95.92-27.4 94.24-25.6 94.24-22L94.24-22 94.24-12.9Q94.24-9.3 95.94-7.53 97.64-5.75 100.64-5.75L100.64-5.75Q103.34-5.75 105.12-7.13 106.89-8.5 106.89-11.2L106.89-11.2 106.89-13.25 101.14-13.25 101.14-19.25 113.74-19.25 113.74 0 107.74 0ZM141.74 0L120.14 0 120.14-34.9 141.74-34.9 141.74-28.65 127.29-28.65 127.29-20.75 139.54-20.75 139.54-14.55 127.29-14.55 127.29-6.25 141.74-6.25 141.74 0ZM154.74-13.2L154.74 0 147.59 0 147.59-34.9 162.69-34.9Q167.39-34.9 169.84-31.95 172.29-29 172.29-24.05L172.29-24.05Q172.29-20.2 170.84-17.55 169.39-14.9 166.54-13.85L166.54-13.85 172.64 0 164.89 0 159.49-13.2 154.74-13.2ZM154.74-19.15L161.79-19.15Q163.24-19.15 164.06-19.88 164.89-20.6 164.89-22.4L164.89-22.4 164.89-25.4Q164.89-27.2 164.06-27.93 163.24-28.65 161.79-28.65L161.79-28.65 154.74-28.65 154.74-19.15ZM188.29 0.6L188.29 0.6Q180.44 0.6 175.99-4.9L175.99-4.9 180.59-9.5Q183.59-5.65 188.44-5.65L188.44-5.65Q193.44-5.65 193.44-10.05L193.44-10.05Q193.44-11.85 192.54-12.85 191.64-13.85 189.74-14.25L189.74-14.25 186.54-14.85Q181.69-15.75 179.41-18.23 177.14-20.7 177.14-25.1L177.14-25.1Q177.14-30.2 180.14-32.85 183.14-35.5 188.94-35.5L188.94-35.5Q196.34-35.5 200.19-30.7L200.19-30.7 195.59-26.1Q194.29-27.7 192.66-28.48 191.04-29.25 188.84-29.25L188.84-29.25Q186.44-29.25 185.36-28.35 184.29-27.45 184.29-25.45L184.29-25.45Q184.29-23.7 185.11-22.8 185.94-21.9 187.79-21.5L187.79-21.5 190.99-20.85Q193.54-20.3 195.36-19.53 197.19-18.75 198.36-17.55 199.54-16.35 200.06-14.7 200.59-13.05 200.59-10.85L200.59-10.85Q200.59-5.25 197.44-2.33 194.29 0.6 188.29 0.6Z" opacity="1" transform="matrix(1,0,0,1,0,0)" fill="#000000" class="wordmark-text-0" data-fill-palette-color="primary" id="text-0"></path></svg></g></svg></g></svg></g></svg></g><g transform="matrix(1,0,0,1,412.5097043380645,0)"><svg viewBox="0 0 99.4585277419355 99.4585277419355" height="99.4585277419355" width="99.4585277419355"><g data-palette-color="#8b3c7f"><rect width="27.185330916129036" height="99.4585277419355" fill="#000000" stroke="transparent" data-fill-palette-color="accent" x="0" fill-opacity="1"></rect><rect width="27.185330916129036" height="99.4585277419355" fill="#000000" stroke="transparent" data-fill-palette-color="accent" x="33.152842580645164" fill-opacity="0.75"></rect><rect width="27.185330916129036" height="99.4585277419355" fill="#000000" stroke="transparent" data-fill-palette-color="accent" x="66.30568516129033" fill-opacity="0.5"></rect></g></svg></g></svg></g><defs></defs></svg><rect width="395.52" height="76.83648013211766" fill="none" stroke="none" visibility="hidden"></rect></g></svg></g></svg>